<?xml version="1.0" encoding="utf-8"?>
<!-- Generator: Adobe Illustrator 24.1.1, SVG Export Plug-In . SVG Version: 6.00 Build 0)  -->
<svg version="1.1" id="Layer_1" xmlns="http://www.w3.org/2000/svg" xmlns:xlink="http://www.w3.org/1999/xlink" x="0px" y="0px"
	 viewBox="0 0 446.3 95.2" style="enable-background:new 0 0 446.3 95.2;" xml:space="preserve">
  <style type="text/css">
    /* Using CSS variables */
    .st0 { fill: var(--primary-color); }
    .st1 { fill: var(--secondary-color); }
    .st2 { fill: var(--accent-color); }
    .st3 { fill: none; stroke: var(--border-color); stroke-width: 4; stroke-linecap: round; stroke-miterlimit: 10; }
    .st4 { fill: var(--highlight-color); }
  </style>

<g>
	<rect x="383" y="29.3" class="st0" width="8.8" height="33.3"/>
	<path class="st0" d="M348.1,27.4v9.1h20.7c4.2,0,7.6,3.5,7.6,7.9v12.8c0,4.4-4.8,6.3-9.1,6.3h-30.6v-9.8h27.8
		c1.3,0,2.4-1.1,2.4-2.5v-3.7c0-1.6-1.3-3.1-2.9-3.1l-22.1-0.9c-3.6-0.1-6.5-3.2-6.5-7v-9.1H348.1z"/>
	<polyline class="st1" points="195.4,63.4 195.4,17.5 218.1,44.3 218.1,16.3 264.1,16.3 264.1,24.6 227.9,24.6 227.9,63.4 
		203.1,40.3 203.5,63.4 195.4,63.4 	"/>
	<polyline class="st1" points="127.4,16.3 145.4,63.4 169.2,16.3 157.7,16.3 145.3,42.7 136.8,16.3 127.4,16.3 	"/>
	<polyline class="st0" points="276.3,16.3 294.4,63.4 318.2,16.3 306.7,16.3 294.3,42.7 285.8,16.3 276.3,16.3 	"/>
	<polygon class="st1" points="97.5,63.4 108.8,63.4 120.3,38.4 127.3,53.8 120.7,54 116.9,63.4 139.9,63.4 121.8,16.3 97.5,63.3 	"/>
	<polygon class="st0" points="398,63.4 409.3,63.4 420.8,38.4 427.9,53.8 421.2,54 417.5,63.4 440.5,63.4 422.3,16.3 398.1,63.3 	"/>
	<polygon class="st1" points="193.9,63.4 184.8,63.3 173.3,38.3 165.6,53.8 172,54 175.8,63.4 151.5,63.4 174.7,16.3 193.9,63.3 	"/>
	<polyline class="st2" points="286.2,75.4 286.7,75.4 290.4,84.9 294.3,75.4 294.8,75.4 290.7,85.5 290.2,85.5 286.2,75.4 	"/>
	<polyline class="st2" points="307.7,85.5 307.7,75.4 313.6,75.4 313.6,75.9 308.2,75.9 308.2,80.1 313.5,80.1 313.5,80.5 
		308.2,80.5 308.2,85.1 313.6,85.1 313.6,85.5 307.7,85.5 	"/>
	<polyline class="st2" points="327,85.5 327,75.4 327.5,75.4 334,84.5 334,75.4 334.5,75.4 334.5,85.5 333.9,85.5 327.4,76.2 
		327.4,85.5 327,85.5 	"/>
	<polyline class="st2" points="347.5,75.9 347.5,75.5 354.5,75.5 354.5,75.9 351.2,75.9 351.2,85.5 350.7,85.5 350.7,75.9 
		347.5,75.9 	"/>
	<path class="st2" d="M367.5,81.7v-6.3h0.5v6.3c0,1.1,0.3,2,0.8,2.6s1.3,0.9,2.3,0.9s1.8-0.3,2.3-0.9s0.8-1.4,0.8-2.6v-6.3h0.5v6.3
		c0,1.2-0.3,2.3-0.9,3s-1.5,1-2.7,1s-2-0.3-2.7-1C367.8,83.9,367.5,82.9,367.5,81.7"/>
	<path class="st2" d="M389,80.7h2.9c0.7,0,1.3-0.2,1.7-0.7c0.4-0.4,0.6-1,0.6-1.8c0-0.7-0.2-1.2-0.6-1.7c-0.4-0.4-1-0.7-1.7-0.7H389
		V80.7 M388.6,85.5V75.4h3.3c0.8,0,1.5,0.2,2,0.7s0.8,1.2,0.8,2.1c0,0.8-0.3,1.5-0.8,2.1c-0.5,0.5-1.2,0.7-2,0.7l3,4.3h-0.6
		l-2.9-4.3h-2.3v4.3h-0.5V85.5z"/>
	<polyline class="st2" points="408.1,85.5 408.1,75.4 414,75.4 414,75.9 408.6,75.9 408.6,80.1 413.9,80.1 413.9,80.5 408.6,80.5 
		408.6,85.1 414,85.1 414,85.5 408.1,85.5 	"/>
	<path class="st2" d="M426.9,84l0.4-0.3c0.3,0.4,0.8,0.8,1.3,1s1.1,0.4,1.7,0.4c0.5,0,1-0.1,1.4-0.2s0.7-0.3,0.9-0.6
		c0.2-0.2,0.3-0.5,0.4-0.7s0.1-0.5,0.1-0.7c0-0.3-0.1-0.6-0.2-0.9s-0.3-0.5-0.5-0.6c-0.2-0.2-0.5-0.3-0.8-0.4s-0.6-0.2-0.9-0.3
		c-0.3-0.1-0.6-0.2-1-0.3c-0.3-0.1-0.6-0.2-0.9-0.3c-0.3-0.1-0.5-0.3-0.8-0.4c-0.2-0.2-0.4-0.4-0.5-0.7c-0.1-0.3-0.2-0.6-0.2-0.9
		c0-0.5,0.1-1,0.4-1.3c0.3-0.4,0.7-0.7,1.1-0.9c0.5-0.2,0.9-0.3,1.5-0.3c1.3,0,2.4,0.5,3.1,1.4l-0.4,0.3c-0.6-0.8-1.6-1.3-2.8-1.3
		c-0.7,0-1.3,0.2-1.8,0.6s-0.7,0.9-0.7,1.5c0,0.4,0.1,0.7,0.3,1c0.2,0.3,0.5,0.5,0.8,0.6s0.7,0.3,1.1,0.4s0.8,0.3,1.2,0.4
		c0.4,0.1,0.8,0.3,1.1,0.5c0.3,0.2,0.6,0.5,0.8,0.8c0.2,0.3,0.3,0.8,0.3,1.3c0,0.2,0,0.5-0.1,0.7s-0.2,0.5-0.3,0.7
		c-0.1,0.2-0.4,0.5-0.6,0.6c-0.2,0.2-0.6,0.3-0.9,0.4s-0.8,0.2-1.3,0.2c-0.7,0-1.4-0.1-1.9-0.4C427.7,85,427.3,84.5,426.9,84"/>
	<rect x="241" y="27.6" class="st1" width="10" height="35.8"/>
	<rect x="321" y="16.3" class="st0" width="8.8" height="47.1"/>
	<rect x="335.3" y="16.3" class="st0" width="69.8" height="8.3"/>
	<path class="st3" d="M129.1,74.1c1,1.1,5.3,5.9,13.3,7.1c8.3,1.3,17.3-1.6,22.7-7.4"/>
	<g>
		<path class="st4" d="M52.6,72.8"/>
		<path class="st4" d="M88,44.7c3-5.8,0.8-12.9-4.9-15.8L46.3,7c-5.6-2.9-12.6-0.8-15.6,5L8.4,55c-2.9,6.5-1.5,18.6,14.1,18.1h30
			l6.3-11.3h-36c-4.7,0-5-3.1-2.9-6.7s18.9-34.6,18.9-34.6c1.2-2.2,2.2-4.2,6.1-1.6s29.5,16.8,29.5,16.8c4.7,2.8,3.6,5.1,1.7,8.5
			s-22.3,42-22.3,42c1.4,1.8,8.7,6.4,12.9-1.5C71,76.7,88,44.7,88,44.7z"/>
		<path class="st4" d="M37.4,34.8h9.8c0.7,0,1.2,0.3,1.5,0.9l12,18.1c0.4,0.5,0,1.3-0.7,1.3H49.4c-0.7,0-1.2-0.4-1.6-0.9L36.8,36
			C36.5,35.4,36.9,34.8,37.4,34.8z"/>
	</g>
</g>
</svg>
