<?xml version="1.0" encoding="utf-8"?>
<!-- Generator: Adobe Illustrator 24.1.1, SVG Export Plug-In . SVG Version: 6.00 Build 0)  -->
<svg version="1.1" id="Layer_1" xmlns="http://www.w3.org/2000/svg" xmlns:xlink="http://www.w3.org/1999/xlink" x="0px" y="0px"
	 viewBox="0 0 177 176.6" style="enable-background:new 0 0 177 176.6;" xml:space="preserve">
<style type="text/css">
	.st0{fill:#ffffff;}
	.st1{fill:none;stroke:#FFC200;stroke-width:0.75;stroke-miterlimit:10;}
</style>
<path class="st0" d="M76.5,133.1c-3.8-1.2-7.5-2.8-11-4.9c-4.9-2.8-9.2-6.4-12.7-10.8c-1.8-2.3-3.4-4.7-4.7-7.3
	c-1.3-2.9-2.4-5.8-3.2-8.8c-0.3-1.1-0.5-1.8-0.7-2.9s-0.3-1.8-0.2-1.8c0.6-0.4,3.7,7.4,10.6,10.6c2.2,1,4.6,1.5,7,1.2
	s4.6-1.2,6.4-2.7c1.3-1.1,2.4-2.4,3.2-3.9c1.9,0.6,3.8,0.8,5.7,0.7c1.2,0,2.4-0.3,3.6-0.6c1.8-0.5,3.5-1.5,4.9-2.8
	c0.9-0.9,0.6-0.9,3-3.8c0.5-0.7,1.1-1.4,1.7-2c-0.7,0.9-1.4,1.8-2,2.8c-0.4,0.7-0.8,1.4-1.2,2.2c-0.3,0.3-0.5,0.7-0.6,1.2
	c-0.1,0.7,0.1,1,0,1.6s-0.7,1-1.3,1.5c-0.9,0.8-1.7,1.7-2.4,2.7c-1,1.4-1.8,2.8-2.5,4.4c-0.6,1.1-1.1,2.1-1.3,2.6
	c-1.2,2.7-1.8,6-2.2,13.5C76.7,127.4,76.6,130,76.5,133.1z"/>
<path class="st0" d="M44.8,80.6c-0.4-2.1-0.2-4.3,0.7-6.3c0.6-1.7,1.7-3,3.3-3.8c1.7-0.6,3.6-0.5,5.2,0.4c1.5,0.9,2.2,2.3,3.1,4.4
	c1.4,3.2,2.6,6.5,3.5,9.9c1,3.5,2.3,6.8,3.9,10.1c0.1,0.7,0.5,2.9-0.7,4.3c-2.1,2.5-7,0.6-7.4,0.4c-3.3-1.3-4.9-4.1-7.2-8.1
	C47.3,88.3,45.8,84.6,44.8,80.6z"/>
<path class="st0" d="M60.2,66.5c1.6,3.3,2.9,6.7,4,10.2c1.3,4.2,2.2,6.7,3.8,11.6c0.8,2.5,1.4,4.2,3,5.4c1.8,1.5,4.2,2,6.5,1.4
	c1.8-0.5,3.4-1.7,4.5-3.3c0.8-0.8,1.2-1.9,1.3-3c0-1.3-0.9-1.6-2.4-4c-0.9-1.5-1.6-3.1-2.1-4.8c-0.4-1.2-0.7-2.5-0.8-3.8
	c0-1,0-1.3,0-3.6c0-1.6,0-1.9,0-2.4c-0.1-1-0.3-2-0.7-3c-0.5-1.4-1.2-2.7-1.9-4c-0.8-1.5-1.1-2.1-1.4-2.5c-0.4-0.7-0.9-1.4-1.4-2
	c-1.4-1.7-5.3-3-8.6-1.3C60.8,59.1,59.2,62.9,60.2,66.5z"/>
<path class="st0" d="M82.7,65.5l-3.9-10.1c-0.1-4.4,3.3-8.1,7.7-8.3c2.9-0.1,5.5,1.3,7.1,3.8l3.9,10.5c-2.2-0.3-4.5-0.2-6.7,0.3
	C87.8,62.4,85.1,63.7,82.7,65.5z"/>
<path class="st0" d="M103.4,61.2c-1.6-2.4-2.1-5.3-1.5-8.1c0.4-2.1,1.7-3.9,3.5-5c4.2-2.4,9.4,1.5,9.7,1.7c2,1.5,2.9,3.3,4.6,6.9
	c1.3,2.8,2.4,5.7,3.2,8.7c-4.2-2.6-8.9-4-13.8-4.1L103.4,61.2z"/>
<path class="st0" d="M83.9,135.4c-0.1-1.9-0.3-4.5-0.3-7.8c0-1.1,0-4.5,0.2-6.6c0.7-7.5,5.4-13.4,7-15.4c3.4-4.2,7.7-7.5,12.6-9.9
	c3.6-1.8,7.4-3.1,11.3-3.8c-0.1-2-0.2-3.9-0.4-5.9H94.8c-2.7-0.4-5.2-1.8-6.9-3.8c-0.8-1-3.1-3.7-2.6-7.3c0.5-2.6,2-4.9,4.3-6.2
	l19.8-0.1h4.4c2.6,0.6,5.2,1.6,7.5,3c2.8,1.8,5.2,4,7.2,6.6c3,3.4,4.4,5.1,5.6,8c1.7,4,1.9,8.5,0.6,12.7c-1,2.9-2.7,5.6-5,7.6
	L116,120.1c-1.4,1.4-2.5,3-3.3,4.8c-0.6,1.2-1,2.4-1.4,3.6c-0.3,1-0.4,1.9-0.6,2.9c-1.3,0.5-3.2,1.1-5.4,1.8
	c-1.8,0.6-3.7,1.1-5.6,1.5c-2.9,0.5-5.8,0.7-8.8,0.6C89.1,135.4,86.7,135.4,83.9,135.4z"/>
<g>
	
		<image style="overflow:visible;opacity:0.63;" width="180" height="180" xlink:href="A4AD806B.png"  transform="matrix(1 0 0 1 7 5.6)">
	</image>
	<g>
		<g>
			<path class="st0" d="M90.1,14.6c-39.6,0-72.2,31.2-73.9,70.8h20.2c3.8-66.7,104.3-66.6,108.1,0H164
				C162.3,45.9,129.7,14.6,90.1,14.6z M36.5,93.1H16.2c2.1,33.9,27,62.1,60.4,68.3V141C54.4,135.2,38.3,116,36.5,93.1z M144.4,93.1
				c-2.3,30.5-30.5,53.3-60.8,49.2l-0.3,20c41.3,3.9,78.3-27.8,80.6-69.2L144.4,93.1z"/>
			<path class="st1" d="M90.1,14.6c-39.6,0-72.2,31.2-73.9,70.8h20.2c3.8-66.7,104.3-66.6,108.1,0H164
				C162.3,45.9,129.7,14.6,90.1,14.6z M36.5,93.1H16.2c2.1,33.9,27,62.1,60.4,68.3V141C54.4,135.2,38.3,116,36.5,93.1z M144.4,93.1
				c-2.3,30.5-30.5,53.3-60.8,49.2l-0.3,20c41.3,3.9,78.3-27.8,80.6-69.2L144.4,93.1z"/>
		</g>
	</g>
</g>
</svg>
